<svg width="35" height="35" viewBox="0 0 35 35" fill="none" xmlns="http://www.w3.org/2000/svg">
<path d="M17.5 0C7.83475 0 0 7.83475 0 17.5C0 27.1652 7.83475 35 17.5 35C27.1652 35 35 27.1652 35 17.5C35 7.83475 27.1652 0 17.5 0ZM19.25 31.3784V21H23.625V17.5H19.25V14.875C19.25 13.9099 20.0349 13.125 21 13.125H23.625V9.625H21C18.1046 9.625 15.75 11.9796 15.75 14.875V17.5H11.375V21H15.75V31.3784C8.855 30.513 3.5 24.626 3.5 17.5C3.5 9.77987 9.78075 3.5 17.5 3.5C25.2192 3.5 31.5 9.77987 31.5 17.5C31.5 24.626 26.145 30.513 19.25 31.3784Z" fill="#808080"/>
</svg>
